<?xml version="1.0" standalone="no"?>
<!DOCTYPE svg PUBLIC "-//W3C//DTD SVG 20010904//EN"
 "http://www.w3.org/TR/2001/REC-SVG-20010904/DTD/svg10.dtd">
<svg version="1.0" xmlns="http://www.w3.org/2000/svg"
 width="664.000000pt" height="664.000000pt" viewBox="0 0 664.000000 664.000000"
 preserveAspectRatio="xMidYMid meet">
<metadata>
Created by potrace 1.14, written by Peter Selinger 2001-2017
</metadata>
<g transform="translate(0.000000,664.000000) scale(0.100000,-0.100000)"
fill="#000000" stroke="none">
<path d="M2460 4140 c-459 -556 -835 -1017 -835 -1025 0 -19 1665 -2025 1680
-2025 16 0 1680 2005 1680 2025 0 18 -1664 2035 -1680 2035 -6 0 -387 -455
-845 -1010z m1655 -34 c445 -539 808 -985 808 -991 0 -7 -59 -85 -133 -173
l-133 -160 -29 17 c-24 13 -59 75 -199 354 -93 186 -169 347 -169 357 0 9 7
23 15 30 8 7 15 16 15 21 0 5 -65 9 -145 9 -80 0 -145 -4 -145 -9 0 -5 7 -14
15 -21 8 -7 15 -22 15 -33 0 -37 -309 -670 -341 -698 -16 -14 -29 -29 -29 -32
0 -4 61 -7 135 -7 86 0 135 4 135 10 0 6 -6 13 -14 16 -28 11 -25 35 11 109
l37 75 176 0 176 0 23 -47 c52 -106 53 -111 31 -130 -11 -10 -20 -21 -20 -25
0 -4 66 -9 146 -10 l147 -3 -668 -805 c-367 -443 -668 -806 -669 -806 -1 -2
-1598 1922 -1614 1945 -11 16 -3 30 70 117 45 54 78 90 74 79 -5 -11 -11 -57
-14 -102 -11 -188 83 -332 266 -405 50 -20 75 -22 202 -23 160 0 222 13 366
80 83 38 96 53 66 73 -20 13 -22 23 -22 113 0 88 2 99 20 109 46 25 15 30
-180 30 -188 0 -201 1 -217 20 -10 11 -21 20 -25 20 -5 0 -8 -43 -8 -95 0 -52
3 -95 8 -95 4 0 15 9 25 20 15 18 29 20 122 20 l105 0 0 -55 0 -54 -67 -22
c-89 -27 -227 -30 -299 -6 -112 38 -174 125 -174 243 0 166 113 268 295 268
120 -1 255 -54 255 -99 0 -8 6 -15 13 -15 14 0 109 184 100 194 -3 3 -16 3
-29 0 -14 -4 -60 7 -116 28 -89 32 -99 33 -233 33 -126 -1 -147 -3 -208 -27
-37 -14 -67 -23 -65 -19 3 8 1282 1559 1284 1557 0 -1 365 -442 809 -980z m85
-877 c30 -67 57 -125 58 -130 2 -5 -51 -9 -118 -9 -94 0 -121 3 -117 13 20 51
112 247 117 247 3 0 30 -55 60 -121z"/>
<path d="M2780 3561 c0 -6 12 -16 28 -23 17 -8 82 -89 174 -218 l147 -205 1
-152 c0 -142 -1 -153 -20 -163 -43 -23 -17 -30 110 -30 104 0 130 3 130 14 0
8 -7 16 -15 20 -12 4 -15 31 -15 155 l0 150 149 209 c91 127 159 213 175 220
55 25 27 32 -129 32 -100 0 -155 -4 -155 -10 0 -6 7 -13 15 -16 29 -12 14 -51
-67 -166 l-81 -118 -69 103 c-101 150 -103 153 -78 174 11 10 20 21 20 25 0 5
-72 8 -160 8 -94 0 -160 -4 -160 -9z"/>
</g>
</svg>
